<svg width="32" height="32" viewBox="0 0 32 32" fill="none" xmlns="http://www.w3.org/2000/svg">
<path d="M16.6076 19.304H14.9827C14.8881 19.3045 14.7978 19.268 14.7342 19.2038C14.6705 19.1396 14.6396 19.0536 14.6491 18.9672L14.7925 17.4667C14.8065 17.3072 14.9519 17.1844 15.1262 17.1849H16.751C16.8456 17.1845 16.936 17.2209 16.9996 17.2852C17.0632 17.3494 17.0941 17.4354 17.0847 17.5218L16.9412 19.0223C16.9273 19.1818 16.7819 19.3046 16.6076 19.304ZM16.868 16.3662H15.2129C15.0301 16.3662 14.8819 16.22 14.8819 16.0398L15.3321 10.9704C15.3523 10.8055 15.4947 10.6819 15.6631 10.6831H17.3182C17.501 10.6831 17.6492 10.8292 17.6492 11.0095L17.1858 16.0822C17.1648 16.2409 17.0302 16.3611 16.868 16.3662ZM26.5996 10.4546C26.7757 10.664 26.8618 10.9367 26.8384 11.2114L26.1915 18.7426C26.1708 18.9889 26.0634 19.2194 25.8892 19.3917L20.5991 24.6217C20.4103 24.8077 20.1576 24.9115 19.8948 24.9109H14.2631L9.30559 29.5625L9.6895 24.9078H7.1684C6.88525 24.908 6.61501 24.7872 6.4236 24.5749C6.23219 24.3625 6.13719 24.0781 6.16178 23.7911L7.70043 5.92294C7.75323 5.39782 8.18839 4.99884 8.70706 5H21.5453C21.8407 4.99992 22.1212 5.13145 22.3131 5.35995L26.5996 10.4546ZM22.6789 17.3059L23.09 12.6573C23.106 12.3817 23.0123 12.1112 22.83 11.9067L20.4117 9.06401C20.2201 8.83943 19.9422 8.71038 19.6499 8.71022H12.0322C11.5136 8.70906 11.0784 9.10804 11.0256 9.63316L10.1187 20.0931C10.0979 20.3793 10.1941 20.6616 10.3848 20.8731C10.5754 21.0845 10.8434 21.2064 11.1254 21.2099H18.6161C18.876 21.2105 19.1261 21.1092 19.3144 20.9269L22.3766 17.9581C22.5515 17.785 22.6589 17.5533 22.6789 17.3059Z" fill="url(#paint0_linear_269_554)"/>
<defs>
<linearGradient id="paint0_linear_269_554" x1="1809.72" y1="5.00001" x2="-83.4695" y2="2148.1" gradientUnits="userSpaceOnUse">
<stop stop-color="#F59C07"/>
<stop offset="1" stop-color="#F57507"/>
</linearGradient>
</defs>
</svg>
